PathFileType	4	(X/Y/Z)	Run_400 02
DataRate	CameraRate	NumFrames	NumMarkers	Units	OrigDataRate	OrigDataStartFrame	OrigNumFrames
100	100	6	42	mm	100	68	128
Frame#	Time	RASI			LPSI			RPSI			RTH1			RTH2			RTH3			LTH1			LTH2			LTH3			RTB1			RTB2			RTB3			LTB1			LTB2			LTB3			RCAL			RTOE			RMT5			LCAL			LTOE			LMT5			LACR			RACR			CLAV			C7			RUA1			RUA2			RUA3			RLEL			RMEL			LUA2			LUA3			LLEL			LMEL			RFAsuperior			RFAradius			RFAulna			LFAsuperior			LFAradius			LFAulna			LUA1			LASI			
		X1	Y1	Z1	X2	Y2	Z2	X3	Y3	Z3	X4	Y4	Z4	X5	Y5	Z5	X6	Y6	Z6	X7	Y7	Z7	X8	Y8	Z8	X9	Y9	Z9	X10	Y10	Z10	X11	Y11	Z11	X12	Y12	Z12	X13	Y13	Z13	X14	Y14	Z14	X15	Y15	Z15	X16	Y16	Z16	X17	Y17	Z17	X18	Y18	Z18	X19	Y19	Z19	X20	Y20	Z20	X21	Y21	Z21	X22	Y22	Z22	X23	Y23	Z23	X24	Y24	Z24	X25	Y25	Z25	X26	Y26	Z26	X27	Y27	Z27	X28	Y28	Z28	X29	Y29	Z29	X30	Y30	Z30	X31	Y31	Z31	X32	Y32	Z32	X33	Y33	Z33	X34	Y34	Z34	X35	Y35	Z35	X36	Y36	Z36	X37	Y37	Z37	X38	Y38	Z38	X39	Y39	Z39	X40	Y40	Z40	X41	Y41	Z41	X42	Y42	Z42	

53	1.17	1124.804816	973.420222	-196.538307	986.725992	1039.979374	-392.966751	971.484502	1034.392288	-301.445751	1114.149378	813.67717	-155.664077	1200.77565	747.286878	-166.211044	1208.552902	609.982996	-185.899114	1073.924026	834.825411	-526.115641	1128.59834	700.486372	-511.338351	1047.986176	586.671785	-497.13746	1132.141527	460.040999	-278.022521	1021.872102	488.433659	-237.636261	956.483411	459.976305	-303.094755	997.484385	307.677598	-414.5699	939.672947	269.897072	-457.897674	906.612651	202.698776	-397.566743	830.045573	559.164565	-306.184799	868.494849	326.337247	-313.527847	843.560152	338.379783	-238.202153	729.530468	138.1419	-382.753728	996.780789	28.728652	-331.503764	928.778717	54.83967	-438.794432	1241.893091	1476.668584	-512.629397	1152.345057	1482.298615	-178.310241	1232.752778	1418.790295	-304.630611	1138.823376	1524.037995	-363.303013	1039.62964	1385.58795	-112.042797	973.756944	1398.049317	-138.026454	957.3043709999999	1330.289109	-109.133597	896.235871	1274.585659	-94.268755	882.052897	1274.414698	-185.296983	1106.697361	1319.035314	-591.960199	1140.841279	1249.507931	-627.204085	1122.874777	1186.396904	-651.572263	1081.528068	1165.421406	-569.939409	965.8252220000001	1215.111376	-90.082824	1087.684271	1105.920052	-136.11452	1035.053844	1064.539169	-110.13853	1206.444828	1166.298974	-626.600462	1344.463076	1177.112387	-520.422645	1349.951882	1108.153374	-542.473423	1195.713287	1360.839874	-595.934383	1161.784279	972.220687	-453.670466	
54	1.18	1129.079121	980.390921	-198.728789	990.124361	1043.653585	-394.045612	974.293514	1039.676254	-302.076545	1120.574006	825.01381	-154.424649	1209.134812	762.491014	-166.010073	1223.447424	625.59977	-184.699026	1072.400511	836.2926179999999	-524.639444	1117.119896	699.346054	-509.437583	1027.759003	590.739855	-496.684085	1157.834947	464.161605	-276.459954	1044.075537	483.772689	-238.192164	983.395498	446.514994	-303.015132	965.585135	312.469599	-415.94847	906.091942	276.446697	-458.565623	872.825873	209.174993	-398.478257	846.310961	532.169948	-311.47823	911.563257	305.147306	-309.765361	884.326196	317.050961	-235.152401	695.783441	150.774482	-384.322078	955.769527	29.047609	-330.630099	888.756963	55.322608	-438.32166	1244.395516	1484.590362	-509.321463	1148.422638	1489.986192	-177.547229	1232.533761	1426.07103	-301.018481	1139.136575	1529.444225	-362.515712	1031.878472	1398.694984	-114.19042	968.07997	1411.847417	-144.469357	948.426633	1345.471566	-113.577626	885.72128	1291.281864	-100.82404	875.354708	1289.932066	-192.545419	1112.102701	1323.447012	-590.237784	1148.554275	1253.36137	-622.671219	1132.07693	1189.1207	-645.1136299999999	1089.27178	1170.072695	-563.827575	955.807596	1233.586098	-94.53394	1079.456353	1124.669714	-136.206123	1027.017146	1082.900523	-110.862134	1215.84193	1173.83923	-617.189452	1349.995741	1194.735456	-507.980627	1359.349004	1125.632659	-527.465049	1200.588785	1366.680758	-592.356998	1164.42448	973.5009	-454.376985	
55	1.19	1134.313424	987.922912	-201.485505	993.938716	1047.612404	-395.067224	977.913353	1045.43318	-302.737384	1126.904562	836.4921900000001	-153.625075	1216.897461	777.290209	-166.439453	1236.55432	640.961977	-183.472105	1071.510839	838.336189	-523.269623	1106.868555	699.377218	-507.004246	1008.937376	596.846231	-496.335052	1182.437666	468.200359	-275.187106	1066.111892	477.857452	-238.664496	1010.463462	432.005624	-302.789187	935.168088	319.704909	-417.380785	874.143918	285.337834	-459.398755	841.0668899999999	217.717252	-399.719627	864.970398	502.776667	-316.107698	956.462518	285.104721	-306.565797	926.550852	295.8968	-232.731185	664.707631	165.52303	-385.861234	914.656372	29.462403	-329.811069	849.1409200000001	55.86584	-438.156258	1246.496763	1493.219448	-505.60825	1145.62525	1498.003087	-176.571286	1232.461813	1434.047579	-297.71827	1139.110881	1535.241402	-361.265768	1026.220899	1411.781458	-116.152321	964.482301	1425.982997	-149.899988	941.634632	1361.215264	-117.786359	877.164412	1308.889833	-107.196639	869.427472	1306.692348	-199.454246	1117.603563	1328.882422	-589.775453	1156.404233	1258.355569	-618.540723	1141.262678	1193.244044	-639.232111	1096.481709	1175.816941	-558.904531	947.118218	1252.22291	-98.704125	1072.877415	1143.9403	-136.689566	1020.458491	1101.76167	-112.188722	1224.675696	1182.713582	-608.390405	1354.107667	1213.529403	-495.961348	1367.303392	1144.564653	-512.89516	1205.216769	1373.781395	-588.84356	1167.411975	975.523489	-454.867953	
56	1.2	1139.82482	995.62434	-204.401647	998.029913	1051.71453	-396.01881	982.240103	1051.431924	-303.384132	1133.158184	847.689035	-153.132889	1224.143221	791.417454	-166.850788	1247.939027	655.539822	-182.197659	1070.801348	840.778986	-521.9991199999999	1097.905925	700.798375	-504.047273	992.341579	604.41284	-496.000919	1206.068669	471.712219	-274.115529	1088.333581	470.4218	-238.87498	1038.263332	416.803424	-302.541921	906.664577	328.896027	-418.746772	844.3299009999999	296.19604	-460.54868	811.675192	227.786093	-401.553613	886.463559	471.67508	-319.673136	1002.921901	266.561541	-304.254299	970.3361619999999	275.027077	-231.146988	636.6340279999999	181.773024	-387.566652	873.5345150000001	29.864021	-329.449988	810.128621	56.395312	-438.383621	1248.616339	1501.883916	-501.442056	1143.777124	1505.88532	-175.389885	1232.562244	1442.139568	-294.635667	1138.98817	1541.280555	-359.614518	1022.329681	1424.414436	-117.629458	962.674941	1440.071511	-154.258686	936.624057	1377.068281	-121.66489	870.249218	1326.736574	-113.178316	864.988723	1324.177994	-206.062867	1123.498366	1335.413873	-590.312991	1164.439934	1264.5549	-614.857662	1150.409106	1198.642352	-634.1010230000001	1103.559621	1182.273237	-555.259272	939.596235	1270.416024	-102.420139	1067.8258	1163.229807	-137.35061	1015.273064	1120.589057	-114.170349	1232.87726	1192.612925	-600.4301809999999	1356.844648	1232.82594	-484.59112	1373.84724	1164.279919	-499.032632	1210.031145	1381.743721	-585.367658	1170.685153	977.968475	-455.229688	
57	1.21	1144.963413	1003.05377	-207.081859	1002.492583	1055.954835	-397.096167	987.1324530000001	1057.573053	-304.137721	1139.361924	858.508813	-152.863451	1230.659923	804.542983	-166.958568	1257.628824	668.8020330000001	-180.98656	1070.005039	843.432283	-520.940327	1089.832543	703.19944	-500.737948	977.784643	612.800014	-495.457692	1228.801553	474.299868	-273.034669	1111.018362	461.383351	-238.743594	1067.417363	401.407647	-302.360035	880.364886	339.56044	-420.150369	816.948162	308.634363	-462.150984	784.831206	238.856846	-404.151138	910.820283	439.475355	-321.739745	1050.715019	249.764745	-303.228746	1016.002983	254.64226	-230.624011	611.798776	199.080446	-389.747978	832.739073	30.646497	-329.602273	772.0201499999999	57.144724	-438.922927	1250.914045	1510.266209	-496.970024	1142.678514	1513.246711	-174.091738	1232.800451	1449.931534	-291.610179	1138.928502	1547.310596	-357.641172	1019.796501	1436.411572	-118.528095	962.342477	1453.838191	-157.724852	933.090161	1392.629126	-125.083992	864.747223	1344.188666	-118.606261	862.452587	1341.558077	-212.209379	1129.998153	1342.981468	-591.19257	1172.687774	1271.888539	-611.756064	1159.587984	1205.108378	-629.8877	1110.640366	1189.206046	-552.848441	933.35648	1287.886298	-105.752229	1064.109787	1182.072754	-138.00335	1011.389718	1138.868689	-116.644104	1240.672146	1203.306037	-593.380726	1358.400066	1251.94437	-473.942415	1379.156435	1184.111027	-486.164016	1215.234131	1390.313917	-581.988211	1174.299854	980.3348559999999	-455.577312	
58	1.22	1149.417076	1009.747529	-209.295382	1007.506125	1060.296087	-398.541955	992.356648	1063.673742	-305.216651	1145.34415	868.87969	-152.86522	1236.16431	816.197363	-166.959982	1265.616251	680.2659640000001	-180.136565	1069.317184	846.220871	-520.215363	1082.32512	705.86406	-497.272774	964.758132	621.531087	-494.531466	1250.634625	475.867383	-271.909085	1134.362964	450.850195	-238.323851	1098.021635	386.183989	-302.281236	856.505993	351.36037	-421.640723	792.315506	322.187332	-464.107411	760.6835170000001	250.606104	-407.293301	937.870393	406.544808	-322.079191	1099.590163	234.937453	-303.7688	1063.801854	235.11335	-231.316501	590.531673	217.28301	-392.575089	792.892889	32.217779	-329.977643	735.262916	58.661431	-439.701124	1253.364124	1518.215488	-492.331107	1142.234152	1519.816325	-172.727741	1233.170837	1457.107404	-288.567993	1138.995266	1552.980951	-355.445254	1018.327245	1447.651451	-118.907401	963.200109	1466.978058	-160.472338	930.8260739999999	1407.517271	-127.829913	860.539298	1360.745607	-123.312122	861.440547	1358.073575	-217.487419	1137.052849	1351.176882	-591.673063	1181.128122	1280.097429	-609.377789	1168.865107	1212.395927	-626.755078	1117.752602	1196.597673	-551.602842	928.478332	1304.455898	-108.738152	1061.544171	1200.042672	-138.540792	1008.756459	1156.147497	-119.382457	1248.290487	1214.510413	-587.311024	1359.013101	1270.301813	-464.070376	1383.413368	1203.396186	-474.428477	1220.840782	1399.293995	-578.794539	1178.360931	982.2637570000001	-455.871662	
